<svg xmlns="http://www.w3.org/2000/svg" width="992" height="486" viewBox="0 0 992 486" version="1.1"><path d="M 172.411 111.891 C 170.713 112.927, 168.313 115.063, 167.080 116.637 C 165.847 118.212, 163.399 121.075, 161.640 123 C 159.882 124.925, 157.352 128.075, 156.020 130 C 154.687 131.925, 153.293 133.725, 152.922 134 C 149.570 136.486, 127.459 175.097, 124.003 184.500 C 123.598 185.600, 122.790 187.625, 122.207 189 C 118.403 197.962, 114.738 209.427, 111.657 222 C 108.289 235.748, 107.108 243.181, 105.119 263.132 C 104.416 270.183, 103.718 272.564, 101.309 276.132 C 99.687 278.534, 97.742 282.075, 96.987 284 C 96.232 285.925, 94.854 288.880, 93.926 290.568 C 92.998 292.255, 91.908 295.180, 91.504 297.068 C 91.100 298.955, 90.408 300.952, 89.967 301.504 C 87.472 304.624, 81.050 327.596, 78.073 344.050 C 73.568 368.947, 72.953 409.250, 77.002 414.250 C 78.986 416.701, 84.842 417.206, 87.329 415.142 C 88.163 414.449, 90.948 408.847, 93.518 402.692 C 101.703 383.089, 113.935 361.485, 117.509 360.322 C 118.064 360.142, 120.011 362.846, 121.835 366.331 C 127.298 376.766, 132.042 382.378, 136.033 383.129 C 137.940 383.487, 143.190 384.464, 147.700 385.300 C 157.492 387.116, 158 387.381, 158 390.693 C 158 396.814, 165.575 420.139, 169.443 425.926 C 172.154 429.982, 172.969 430.534, 176.645 430.802 C 180.262 431.066, 181.057 430.729, 182.895 428.148 C 184.053 426.522, 185 424.894, 185 424.532 C 185 424.169, 186.186 421.313, 187.635 418.186 C 189.084 415.059, 191.661 406.778, 193.360 399.785 L 196.450 387.069 201.274 386.035 C 203.928 385.466, 207.089 384.980, 208.299 384.956 C 211.125 384.899, 219.025 382.756, 221.101 381.482 C 222.800 380.439, 228.220 372.422, 232.197 365.068 C 233.516 362.630, 235.101 360.466, 235.721 360.260 C 238.800 359.233, 255.355 389.286, 264.056 411.697 C 266.132 417.044, 274.018 418.403, 276.831 413.899 C 277.542 412.760, 278.528 405.827, 279.066 398.180 C 281.368 365.456, 273.976 323.702, 260.268 292 C 258.171 287.150, 250.964 272.717, 250.032 271.500 C 249.611 270.950, 248.739 266, 248.095 260.500 C 247.452 255, 246.701 248.700, 246.428 246.500 C 246.155 244.300, 244.816 237.550, 243.454 231.500 C 242.092 225.450, 240.486 218.250, 239.886 215.500 C 238.478 209.044, 235.842 201.012, 232.008 191.500 C 231.565 190.400, 230.629 187.925, 229.928 186 C 227.492 179.306, 217.740 160.531, 211.773 151.045 C 199.012 130.761, 181.649 109.996, 177.457 110.004 C 176.381 110.006, 174.110 110.855, 172.411 111.891 M 170.425 136.720 C 146.146 165.759, 127.302 208.601, 122.138 246.500 C 117.784 278.457, 117.890 286.084, 123.160 319.500 C 126.067 337.927, 131.382 353.361, 139.115 365.827 C 140.746 368.458, 146.139 370.301, 150.833 369.833 L 154.166 369.500 154.047 335.804 C 153.908 296.598, 153.974 296.226, 161.625 292.842 C 164.205 291.700, 169.070 290.295, 172.436 289.718 C 177.775 288.804, 179.471 288.948, 185.743 290.853 C 196.940 294.254, 197.895 295.474, 199.164 308 C 200.056 316.811, 199.782 357.415, 198.765 367 C 198.525 369.268, 198.886 369.528, 202.656 369.803 C 210.700 370.389, 213.160 368.412, 218.769 356.855 C 221.533 351.160, 224.353 344.700, 225.036 342.500 C 225.720 340.300, 226.656 337.375, 227.117 336 C 228.803 330.970, 231.968 310.130, 233.158 296.220 C 234.514 280.369, 233.085 250.446, 230.379 238.018 C 229.599 234.433, 228.708 230.150, 228.399 228.500 C 228.090 226.850, 227.462 224.600, 227.002 223.500 C 226.542 222.400, 224.766 217, 223.055 211.500 C 221.344 206, 219.541 200.600, 219.050 199.500 C 218.558 198.400, 217.339 195.475, 216.342 193 C 212.872 184.390, 204.104 167.444, 198.551 158.613 C 190.698 146.123, 180.381 132.589, 177.227 130.640 C 176.551 130.222, 173.806 132.676, 170.425 136.720 M 533.250 183.662 C 532.376 184.015, 532 186.964, 532 193.476 C 532 201.043, 532.296 202.900, 533.582 203.393 C 534.452 203.727, 538.915 204, 543.500 204 C 548.085 204, 552.548 203.727, 553.418 203.393 C 555.750 202.498, 555.750 184.502, 553.418 183.607 C 551.546 182.888, 535.056 182.934, 533.250 183.662 M 578.699 183.634 C 578.315 184.019, 578 208.812, 578 238.730 L 578 293.126 580.626 298.489 C 586.411 310.304, 598.375 316.713, 613 315.832 L 618.500 315.500 618.500 304.500 L 618.500 293.500 611.776 293 C 606.535 292.610, 604.550 291.998, 602.776 290.223 L 600.500 287.946 600 235.723 L 599.500 183.500 589.449 183.217 C 583.922 183.062, 579.084 183.249, 578.699 183.634 M 636.441 184.294 C 636.153 185.044, 636.048 189.673, 636.209 194.579 L 636.500 203.500 647 203.500 L 657.500 203.500 657.500 193.500 L 657.500 183.500 647.232 183.215 C 639.281 182.994, 636.846 183.237, 636.441 184.294 M 886.667 183.667 C 886.300 184.033, 886 207.608, 886 236.056 C 886 285.492, 885.915 287.883, 884.088 290.139 L 882.177 292.500 857 292.500 L 831.823 292.500 829.912 290.139 C 828.180 288.001, 828.002 286.021, 828.022 269.139 C 828.042 252.316, 828.231 250.256, 829.964 248 L 831.883 245.500 854.474 245.166 L 877.064 244.833 876.782 233.666 L 876.500 222.500 858 222.219 C 838.593 221.925, 827.929 222.963, 822.654 225.661 C 813.988 230.093, 808.511 236.940, 806.158 246.285 C 804.518 252.800, 804.662 285.145, 806.359 291.500 C 809.257 302.346, 814.691 309.111, 823.949 313.394 C 828.118 315.323, 830.596 315.528, 853.500 315.834 C 879.810 316.185, 886.152 315.536, 892.912 311.802 C 898.496 308.717, 903.657 303.199, 906.188 297.607 C 908.499 292.502, 908.500 292.478, 908.799 238.589 C 909.039 195.216, 908.844 184.517, 907.799 183.854 C 906.251 182.873, 887.626 182.707, 886.667 183.667 M 164.513 188.068 C 146.742 196.932, 142.390 220.101, 155.822 234.339 C 163.063 242.016, 174.274 244.806, 185.159 241.642 C 199.311 237.528, 209.058 220.881, 204.915 207.899 C 201.655 197.680, 196.987 192.094, 188.292 188.007 C 182.397 185.236, 170.128 185.268, 164.513 188.068 M 370.313 191.113 C 368.560 191.614, 366.194 193.209, 365.055 194.657 C 363.007 197.261, 362.987 197.935, 363.242 256.395 L 363.500 315.500 374 315.500 L 384.500 315.500 385 280 L 385.500 244.500 387.500 247.432 C 388.600 249.044, 397.600 264.540, 407.500 281.867 C 418.621 301.331, 426.553 314.141, 428.256 315.385 C 431.759 317.946, 437.229 317.966, 440.623 315.432 C 442.933 313.707, 450.978 300.636, 461.025 282.284 C 462.766 279.103, 464.533 276.050, 464.951 275.500 C 465.370 274.950, 467.074 272.025, 468.739 269 C 470.404 265.975, 474.181 259.225, 477.133 254 L 482.500 244.500 483 280 L 483.500 315.500 494.750 315.783 L 506 316.066 506 257.437 C 506 193.423, 506.139 195.018, 500.273 191.878 C 494.209 188.633, 487.664 191.221, 483.525 198.500 C 482.274 200.700, 477.754 208.575, 473.480 216 C 469.207 223.425, 464.875 230.963, 463.855 232.750 C 459.572 240.255, 457.899 243.175, 456.123 246.250 C 455.090 248.037, 449.984 256.902, 444.776 265.949 C 439.568 274.996, 434.876 282.541, 434.349 282.717 C 433.822 282.893, 432.458 281.341, 431.318 279.268 C 429.492 275.947, 412.940 246.977, 407.883 238.250 C 406.848 236.463, 405.100 233.425, 404 231.500 C 402.900 229.575, 401.154 226.537, 400.120 224.750 C 399.086 222.963, 394.598 215.170, 390.145 207.432 C 380.899 191.365, 377.941 188.931, 370.313 191.113 M 168.866 203.959 C 162.266 209.399, 161.394 216.749, 166.613 222.952 C 173.760 231.445, 187.906 227.477, 189.550 216.518 C 191.373 204.359, 178.134 196.320, 168.866 203.959 M 533.250 222.662 C 532.275 223.056, 532 233.282, 532 269.064 L 532 314.962 534.250 315.454 C 535.487 315.725, 540.550 315.846, 545.500 315.723 L 554.500 315.500 554.760 269.369 L 555.020 223.238 552.760 222.633 C 550.080 221.915, 535.046 221.938, 533.250 222.662 M 636.471 223.215 C 636.200 223.922, 636.096 244.975, 636.239 270 L 636.500 315.500 647 315.500 L 657.500 315.500 657.500 269 L 657.500 222.500 647.232 222.215 C 639.578 222.002, 636.839 222.257, 636.471 223.215 M 689.741 223.376 C 687.673 224.143, 685.383 225.267, 684.652 225.874 C 681.619 228.391, 681.146 234.790, 681.048 274.634 C 680.961 310.625, 681.116 314.831, 682.557 315.384 C 683.441 315.723, 688.621 316, 694.069 316 L 703.974 316 704.237 280.750 L 704.500 245.500 727 245.526 C 748.722 245.552, 749.629 245.632, 753.218 247.856 C 755.262 249.123, 757.962 251.811, 759.218 253.830 C 761.423 257.375, 761.517 258.485, 762 286.500 L 762.500 315.500 773.500 315.500 L 784.500 315.500 784.766 288.065 C 784.919 272.335, 784.595 258.255, 784.007 255.065 C 780.898 238.187, 767.155 225.532, 749.490 223.279 C 745.645 222.789, 731.475 222.296, 718 222.185 C 699.105 222.028, 692.640 222.301, 689.741 223.376 M 170.483 306.660 C 168.987 308.156, 168.876 311.191, 169.361 337.410 C 169.880 365.424, 170.582 375.189, 172.927 387 C 173.528 390.025, 174.300 394.188, 174.642 396.250 C 176.176 405.501, 179.064 397.890, 181.947 377 C 185.396 352.003, 185.621 309.764, 182.323 306.466 C 180.287 304.430, 172.586 304.557, 170.483 306.660 M 103.025 309.435 C 97.456 324.081, 88.276 367.610, 90.324 369.657 C 90.924 370.257, 94 367.629, 94 366.517 C 94 365.309, 102.333 353.446, 107.058 347.928 L 111.828 342.355 110.029 334.428 C 109.040 330.067, 107.670 322.675, 106.985 318 C 105.420 307.320, 104.547 305.431, 103.025 309.435 M 247.688 308.646 C 247.309 309.024, 246.992 310.721, 246.982 312.417 C 246.959 316.144, 244.596 329.535, 242.694 336.714 L 241.312 341.927 245.193 346.214 C 247.328 348.571, 251.843 354.663, 255.225 359.750 C 258.608 364.837, 261.741 369, 262.188 369 C 264.260 369, 261.167 346.133, 257.013 330.750 C 251.701 311.080, 249.788 306.545, 247.688 308.646" stroke="none" fill="#423d2e" fill-rule="evenodd"/><path d="M 0 243.001 L 0 486.002 496.250 485.751 L 992.500 485.500 992.752 242.750 L 993.004 0 496.502 0 L 0 0 0 243.001 M 0.492 243.500 C 0.492 377.150, 0.608 431.676, 0.750 364.670 C 0.892 297.663, 0.892 188.313, 0.750 121.670 C 0.608 55.026, 0.492 109.850, 0.492 243.500 M 172.411 111.891 C 170.713 112.927, 168.313 115.063, 167.080 116.637 C 165.847 118.212, 163.399 121.075, 161.640 123 C 159.882 124.925, 157.352 128.075, 156.020 130 C 154.687 131.925, 153.293 133.725, 152.922 134 C 149.570 136.486, 127.459 175.097, 124.003 184.500 C 123.598 185.600, 122.790 187.625, 122.207 189 C 118.403 197.962, 114.738 209.427, 111.657 222 C 108.289 235.748, 107.108 243.181, 105.119 263.132 C 104.416 270.183, 103.718 272.564, 101.309 276.132 C 99.687 278.534, 97.742 282.075, 96.987 284 C 96.232 285.925, 94.854 288.880, 93.926 290.568 C 92.998 292.255, 91.908 295.180, 91.504 297.068 C 91.100 298.955, 90.408 300.952, 89.967 301.504 C 87.472 304.624, 81.050 327.596, 78.073 344.050 C 73.568 368.947, 72.953 409.250, 77.002 414.250 C 78.986 416.701, 84.842 417.206, 87.329 415.142 C 88.163 414.449, 90.948 408.847, 93.518 402.692 C 101.703 383.089, 113.935 361.485, 117.509 360.322 C 118.064 360.142, 120.011 362.846, 121.835 366.331 C 127.298 376.766, 132.042 382.378, 136.033 383.129 C 137.940 383.487, 143.190 384.464, 147.700 385.300 C 157.492 387.116, 158 387.381, 158 390.693 C 158 396.814, 165.575 420.139, 169.443 425.926 C 172.154 429.982, 172.969 430.534, 176.645 430.802 C 180.262 431.066, 181.057 430.729, 182.895 428.148 C 184.053 426.522, 185 424.894, 185 424.532 C 185 424.169, 186.186 421.313, 187.635 418.186 C 189.084 415.059, 191.661 406.778, 193.360 399.785 L 196.450 387.069 201.274 386.035 C 203.928 385.466, 207.089 384.980, 208.299 384.956 C 211.125 384.899, 219.025 382.756, 221.101 381.482 C 222.800 380.439, 228.220 372.422, 232.197 365.068 C 233.516 362.630, 235.101 360.466, 235.721 360.260 C 238.800 359.233, 255.355 389.286, 264.056 411.697 C 266.132 417.044, 274.018 418.403, 276.831 413.899 C 277.542 412.760, 278.528 405.827, 279.066 398.180 C 281.368 365.456, 273.976 323.702, 260.268 292 C 258.171 287.150, 250.964 272.717, 250.032 271.500 C 249.611 270.950, 248.739 266, 248.095 260.500 C 247.452 255, 246.701 248.700, 246.428 246.500 C 246.155 244.300, 244.816 237.550, 243.454 231.500 C 242.092 225.450, 240.486 218.250, 239.886 215.500 C 238.478 209.044, 235.842 201.012, 232.008 191.500 C 231.565 190.400, 230.629 187.925, 229.928 186 C 227.492 179.306, 217.740 160.531, 211.773 151.045 C 199.012 130.761, 181.649 109.996, 177.457 110.004 C 176.381 110.006, 174.110 110.855, 172.411 111.891 M 170.425 136.720 C 146.146 165.759, 127.302 208.601, 122.138 246.500 C 117.784 278.457, 117.890 286.084, 123.160 319.500 C 126.067 337.927, 131.382 353.361, 139.115 365.827 C 140.746 368.458, 146.139 370.301, 150.833 369.833 L 154.166 369.500 154.047 335.804 C 153.908 296.598, 153.974 296.226, 161.625 292.842 C 164.205 291.700, 169.070 290.295, 172.436 289.718 C 177.775 288.804, 179.471 288.948, 185.743 290.853 C 196.940 294.254, 197.895 295.474, 199.164 308 C 200.056 316.811, 199.782 357.415, 198.765 367 C 198.525 369.268, 198.886 369.528, 202.656 369.803 C 210.700 370.389, 213.160 368.412, 218.769 356.855 C 221.533 351.160, 224.353 344.700, 225.036 342.500 C 225.720 340.300, 226.656 337.375, 227.117 336 C 228.803 330.970, 231.968 310.130, 233.158 296.220 C 234.514 280.369, 233.085 250.446, 230.379 238.018 C 229.599 234.433, 228.708 230.150, 228.399 228.500 C 228.090 226.850, 227.462 224.600, 227.002 223.500 C 226.542 222.400, 224.766 217, 223.055 211.500 C 221.344 206, 219.541 200.600, 219.050 199.500 C 218.558 198.400, 217.339 195.475, 216.342 193 C 212.872 184.390, 204.104 167.444, 198.551 158.613 C 190.698 146.123, 180.381 132.589, 177.227 130.640 C 176.551 130.222, 173.806 132.676, 170.425 136.720 M 533.250 183.662 C 532.376 184.015, 532 186.964, 532 193.476 C 532 201.043, 532.296 202.900, 533.582 203.393 C 534.452 203.727, 538.915 204, 543.500 204 C 548.085 204, 552.548 203.727, 553.418 203.393 C 555.750 202.498, 555.750 184.502, 553.418 183.607 C 551.546 182.888, 535.056 182.934, 533.250 183.662 M 578.699 183.634 C 578.315 184.019, 578 208.812, 578 238.730 L 578 293.126 580.626 298.489 C 586.411 310.304, 598.375 316.713, 613 315.832 L 618.500 315.500 618.500 304.500 L 618.500 293.500 611.776 293 C 606.535 292.610, 604.550 291.998, 602.776 290.223 L 600.500 287.946 600 235.723 L 599.500 183.500 589.449 183.217 C 583.922 183.062, 579.084 183.249, 578.699 183.634 M 636.441 184.294 C 636.153 185.044, 636.048 189.673, 636.209 194.579 L 636.500 203.500 647 203.500 L 657.500 203.500 657.500 193.500 L 657.500 183.500 647.232 183.215 C 639.281 182.994, 636.846 183.237, 636.441 184.294 M 886.667 183.667 C 886.300 184.033, 886 207.608, 886 236.056 C 886 285.492, 885.915 287.883, 884.088 290.139 L 882.177 292.500 857 292.500 L 831.823 292.500 829.912 290.139 C 828.180 288.001, 828.002 286.021, 828.022 269.139 C 828.042 252.316, 828.231 250.256, 829.964 248 L 831.883 245.500 854.474 245.166 L 877.064 244.833 876.782 233.666 L 876.500 222.500 858 222.219 C 838.593 221.925, 827.929 222.963, 822.654 225.661 C 813.988 230.093, 808.511 236.940, 806.158 246.285 C 804.518 252.800, 804.662 285.145, 806.359 291.500 C 809.257 302.346, 814.691 309.111, 823.949 313.394 C 828.118 315.323, 830.596 315.528, 853.500 315.834 C 879.810 316.185, 886.152 315.536, 892.912 311.802 C 898.496 308.717, 903.657 303.199, 906.188 297.607 C 908.499 292.502, 908.500 292.478, 908.799 238.589 C 909.039 195.216, 908.844 184.517, 907.799 183.854 C 906.251 182.873, 887.626 182.707, 886.667 183.667 M 164.513 188.068 C 146.742 196.932, 142.390 220.101, 155.822 234.339 C 163.063 242.016, 174.274 244.806, 185.159 241.642 C 199.311 237.528, 209.058 220.881, 204.915 207.899 C 201.655 197.680, 196.987 192.094, 188.292 188.007 C 182.397 185.236, 170.128 185.268, 164.513 188.068 M 370.313 191.113 C 368.560 191.614, 366.194 193.209, 365.055 194.657 C 363.007 197.261, 362.987 197.935, 363.242 256.395 L 363.500 315.500 374 315.500 L 384.500 315.500 385 280 L 385.500 244.500 387.500 247.432 C 388.600 249.044, 397.600 264.540, 407.500 281.867 C 418.621 301.331, 426.553 314.141, 428.256 315.385 C 431.759 317.946, 437.229 317.966, 440.623 315.432 C 442.933 313.707, 450.978 300.636, 461.025 282.284 C 462.766 279.103, 464.533 276.050, 464.951 275.500 C 465.370 274.950, 467.074 272.025, 468.739 269 C 470.404 265.975, 474.181 259.225, 477.133 254 L 482.500 244.500 483 280 L 483.500 315.500 494.750 315.783 L 506 316.066 506 257.437 C 506 193.423, 506.139 195.018, 500.273 191.878 C 494.209 188.633, 487.664 191.221, 483.525 198.500 C 482.274 200.700, 477.754 208.575, 473.480 216 C 469.207 223.425, 464.875 230.963, 463.855 232.750 C 459.572 240.255, 457.899 243.175, 456.123 246.250 C 455.090 248.037, 449.984 256.902, 444.776 265.949 C 439.568 274.996, 434.876 282.541, 434.349 282.717 C 433.822 282.893, 432.458 281.341, 431.318 279.268 C 429.492 275.947, 412.940 246.977, 407.883 238.250 C 406.848 236.463, 405.100 233.425, 404 231.500 C 402.900 229.575, 401.154 226.537, 400.120 224.750 C 399.086 222.963, 394.598 215.170, 390.145 207.432 C 380.899 191.365, 377.941 188.931, 370.313 191.113 M 168.866 203.959 C 162.266 209.399, 161.394 216.749, 166.613 222.952 C 173.760 231.445, 187.906 227.477, 189.550 216.518 C 191.373 204.359, 178.134 196.320, 168.866 203.959 M 533.250 222.662 C 532.275 223.056, 532 233.282, 532 269.064 L 532 314.962 534.250 315.454 C 535.487 315.725, 540.550 315.846, 545.500 315.723 L 554.500 315.500 554.760 269.369 L 555.020 223.238 552.760 222.633 C 550.080 221.915, 535.046 221.938, 533.250 222.662 M 636.471 223.215 C 636.200 223.922, 636.096 244.975, 636.239 270 L 636.500 315.500 647 315.500 L 657.500 315.500 657.500 269 L 657.500 222.500 647.232 222.215 C 639.578 222.002, 636.839 222.257, 636.471 223.215 M 689.741 223.376 C 687.673 224.143, 685.383 225.267, 684.652 225.874 C 681.619 228.391, 681.146 234.790, 681.048 274.634 C 680.961 310.625, 681.116 314.831, 682.557 315.384 C 683.441 315.723, 688.621 316, 694.069 316 L 703.974 316 704.237 280.750 L 704.500 245.500 727 245.526 C 748.722 245.552, 749.629 245.632, 753.218 247.856 C 755.262 249.123, 757.962 251.811, 759.218 253.830 C 761.423 257.375, 761.517 258.485, 762 286.500 L 762.500 315.500 773.500 315.500 L 784.500 315.500 784.766 288.065 C 784.919 272.335, 784.595 258.255, 784.007 255.065 C 780.898 238.187, 767.155 225.532, 749.490 223.279 C 745.645 222.789, 731.475 222.296, 718 222.185 C 699.105 222.028, 692.640 222.301, 689.741 223.376 M 170.483 306.660 C 168.987 308.156, 168.876 311.191, 169.361 337.410 C 169.880 365.424, 170.582 375.189, 172.927 387 C 173.528 390.025, 174.300 394.188, 174.642 396.250 C 176.176 405.501, 179.064 397.890, 181.947 377 C 185.396 352.003, 185.621 309.764, 182.323 306.466 C 180.287 304.430, 172.586 304.557, 170.483 306.660 M 103.025 309.435 C 97.456 324.081, 88.276 367.610, 90.324 369.657 C 90.924 370.257, 94 367.629, 94 366.517 C 94 365.309, 102.333 353.446, 107.058 347.928 L 111.828 342.355 110.029 334.428 C 109.040 330.067, 107.670 322.675, 106.985 318 C 105.420 307.320, 104.547 305.431, 103.025 309.435 M 247.688 308.646 C 247.309 309.024, 246.992 310.721, 246.982 312.417 C 246.959 316.144, 244.596 329.535, 242.694 336.714 L 241.312 341.927 245.193 346.214 C 247.328 348.571, 251.843 354.663, 255.225 359.750 C 258.608 364.837, 261.741 369, 262.188 369 C 264.260 369, 261.167 346.133, 257.013 330.750 C 251.701 311.080, 249.788 306.545, 247.688 308.646" stroke="none" fill="#eae3e2" fill-rule="evenodd"/></svg>